<svg xmlns="http://www.w3.org/2000/svg" xmlns:xlink="http://www.w3.org/1999/xlink" width="500" zoomAndPan="magnify" viewBox="0 0 375 374.999991" height="500" preserveAspectRatio="xMidYMid meet" version="1.0"><defs><g/></defs><g fill="#071487" fill-opacity="1"><g transform="translate(38.029671, 275.510293)"><g><path d="M -7.0625 59.703125 C 9.414062 59.222656 21.597656 53.097656 29.484375 41.328125 C 37.378906 29.554688 41.328125 9.65625 41.328125 -18.375 L 41.328125 -212.640625 C 41.328125 -221.585938 40.617188 -228.0625 39.203125 -232.0625 C 37.796875 -236.070312 35.148438 -238.78125 31.265625 -240.1875 C 27.378906 -241.601562 21.195312 -242.550781 12.71875 -243.03125 L 12.71875 -250.09375 C 22.601562 -249.382812 37.4375 -249.03125 57.21875 -249.03125 C 76.53125 -249.03125 91.722656 -249.382812 102.796875 -250.09375 L 102.796875 -243.03125 C 94.316406 -242.550781 88.132812 -241.601562 84.25 -240.1875 C 80.363281 -238.78125 77.710938 -236.070312 76.296875 -232.0625 C 74.878906 -228.0625 74.171875 -221.585938 74.171875 -212.640625 L 74.171875 -83.359375 C 74.171875 -63.347656 73.816406 -45.628906 73.109375 -30.203125 C 72.410156 -14.773438 70.765625 -1.765625 68.171875 8.828125 C 63.929688 26.015625 55.273438 39.90625 42.203125 50.5 C 29.140625 61.101562 12.71875 66.40625 -7.0625 66.40625 Z M -7.0625 59.703125 "/></g></g></g><g fill="#ffffff" fill-opacity="1"><g transform="translate(124.440455, 238.101652)"><g><path d="M 112.078125 -112.078125 C 134.054688 -109.085938 149.738281 -102.742188 159.125 -93.046875 C 168.519531 -83.359375 173.21875 -71.722656 173.21875 -58.140625 C 173.21875 -46.753906 170.320312 -36.664062 164.53125 -27.875 C 158.738281 -19.082031 150.445312 -12.238281 139.65625 -7.34375 C 128.863281 -2.445312 116.078125 0 101.296875 0 C 95.898438 0 91.304688 -0.0976562 87.515625 -0.296875 C 74.722656 -0.703125 62.132812 -0.90625 49.75 -0.90625 C 33.363281 -0.90625 20.976562 -0.601562 12.59375 0 L 12.59375 -6 C 19.78125 -6.394531 25.019531 -7.191406 28.3125 -8.390625 C 31.613281 -9.585938 33.863281 -11.882812 35.0625 -15.28125 C 36.257812 -18.675781 36.859375 -24.171875 36.859375 -31.765625 L 36.859375 -180.40625 C 36.859375 -188 36.257812 -193.492188 35.0625 -196.890625 C 33.863281 -200.285156 31.613281 -202.582031 28.3125 -203.78125 C 25.019531 -204.976562 19.78125 -205.78125 12.59375 -206.1875 L 12.59375 -212.171875 C 20.976562 -211.578125 33.164062 -211.28125 49.15625 -211.28125 L 81.515625 -211.578125 C 85.304688 -211.773438 89.601562 -211.875 94.40625 -211.875 C 114.78125 -211.875 130.410156 -207.578125 141.296875 -198.984375 C 152.191406 -190.398438 157.640625 -179.015625 157.640625 -164.828125 C 157.640625 -153.242188 153.992188 -142.851562 146.703125 -133.65625 C 139.410156 -124.46875 127.867188 -117.476562 112.078125 -112.6875 Z M 86.90625 -206.1875 C 80.71875 -206.1875 76.070312 -205.484375 72.96875 -204.078125 C 69.875 -202.679688 67.726562 -200.1875 66.53125 -196.59375 C 65.332031 -193 64.734375 -187.601562 64.734375 -180.40625 L 64.734375 -112.6875 L 84.8125 -112.6875 C 101.195312 -112.6875 112.632812 -117.128906 119.125 -126.015625 C 125.613281 -134.910156 128.859375 -146.75 128.859375 -161.53125 C 128.859375 -176.519531 125.5625 -187.707031 118.96875 -195.09375 C 112.382812 -202.488281 101.695312 -206.1875 86.90625 -206.1875 Z M 87.203125 -6.890625 C 124.566406 -6.890625 143.25 -24.375 143.25 -59.34375 C 143.25 -75.125 139.003906 -87.109375 130.515625 -95.296875 C 122.023438 -103.492188 108.488281 -107.59375 89.90625 -107.59375 L 64.734375 -107.59375 L 64.734375 -31.765625 C 64.734375 -24.578125 65.332031 -19.28125 66.53125 -15.875 C 67.726562 -12.476562 69.875 -10.128906 72.96875 -8.828125 C 76.070312 -7.535156 80.816406 -6.890625 87.203125 -6.890625 Z M 87.203125 -6.890625 "/></g></g></g><g fill="#071487" fill-opacity="1"><g transform="translate(115.098065, 237.448367)"><g><path d="M 112.078125 -112.078125 C 134.054688 -109.085938 149.738281 -102.742188 159.125 -93.046875 C 168.519531 -83.359375 173.21875 -71.722656 173.21875 -58.140625 C 173.21875 -46.753906 170.320312 -36.664062 164.53125 -27.875 C 158.738281 -19.082031 150.445312 -12.238281 139.65625 -7.34375 C 128.863281 -2.445312 116.078125 0 101.296875 0 C 95.898438 0 91.304688 -0.0976562 87.515625 -0.296875 C 74.722656 -0.703125 62.132812 -0.90625 49.75 -0.90625 C 33.363281 -0.90625 20.976562 -0.601562 12.59375 0 L 12.59375 -6 C 19.78125 -6.394531 25.019531 -7.191406 28.3125 -8.390625 C 31.613281 -9.585938 33.863281 -11.882812 35.0625 -15.28125 C 36.257812 -18.675781 36.859375 -24.171875 36.859375 -31.765625 L 36.859375 -180.40625 C 36.859375 -188 36.257812 -193.492188 35.0625 -196.890625 C 33.863281 -200.285156 31.613281 -202.582031 28.3125 -203.78125 C 25.019531 -204.976562 19.78125 -205.78125 12.59375 -206.1875 L 12.59375 -212.171875 C 20.976562 -211.578125 33.164062 -211.28125 49.15625 -211.28125 L 81.515625 -211.578125 C 85.304688 -211.773438 89.601562 -211.875 94.40625 -211.875 C 114.78125 -211.875 130.410156 -207.578125 141.296875 -198.984375 C 152.191406 -190.398438 157.640625 -179.015625 157.640625 -164.828125 C 157.640625 -153.242188 153.992188 -142.851562 146.703125 -133.65625 C 139.410156 -124.46875 127.867188 -117.476562 112.078125 -112.6875 Z M 86.90625 -206.1875 C 80.71875 -206.1875 76.070312 -205.484375 72.96875 -204.078125 C 69.875 -202.679688 67.726562 -200.1875 66.53125 -196.59375 C 65.332031 -193 64.734375 -187.601562 64.734375 -180.40625 L 64.734375 -112.6875 L 84.8125 -112.6875 C 101.195312 -112.6875 112.632812 -117.128906 119.125 -126.015625 C 125.613281 -134.910156 128.859375 -146.75 128.859375 -161.53125 C 128.859375 -176.519531 125.5625 -187.707031 118.96875 -195.09375 C 112.382812 -202.488281 101.695312 -206.1875 86.90625 -206.1875 Z M 87.203125 -6.890625 C 124.566406 -6.890625 143.25 -24.375 143.25 -59.34375 C 143.25 -75.125 139.003906 -87.109375 130.515625 -95.296875 C 122.023438 -103.492188 108.488281 -107.59375 89.90625 -107.59375 L 64.734375 -107.59375 L 64.734375 -31.765625 C 64.734375 -24.578125 65.332031 -19.28125 66.53125 -15.875 C 67.726562 -12.476562 69.875 -10.128906 72.96875 -8.828125 C 76.070312 -7.535156 80.816406 -6.890625 87.203125 -6.890625 Z M 87.203125 -6.890625 "/></g></g></g><g fill="#2b2b2a" fill-opacity="1"><g transform="translate(117.448356, 300.671231)"><g><path d="M 0.816406 0 L 9.734375 0 C 15.394531 0 18.425781 -3.238281 18.425781 -8.917969 C 18.425781 -14.628906 15.417969 -17.839844 9.734375 -17.839844 L 0.714844 -17.839844 L 0.714844 -17.277344 L 2.269531 -17.277344 L 2.269531 -0.585938 L 0.816406 -0.585938 Z M 5.964844 -0.585938 L 5.964844 -17.277344 L 9.710938 -17.277344 C 12.769531 -17.277344 14.730469 -15.445312 14.730469 -11.316406 L 14.730469 -6.523438 C 14.730469 -2.34375 12.769531 -0.585938 9.734375 -0.585938 Z M 5.964844 -0.585938 "/></g></g></g><g fill="#2b2b2a" fill-opacity="1"><g transform="translate(136.912409, 300.671231)"><g><path d="M 14.550781 -14.476562 L 14.550781 -13.226562 L 15.136719 -13.226562 L 15.136719 -17.839844 L 0.714844 -17.839844 L 0.714844 -17.277344 L 2.269531 -17.277344 L 2.269531 -0.585938 L 0.714844 -0.585938 L 0.714844 0 L 15.136719 0 L 15.136719 -4.613281 L 14.550781 -4.613281 L 14.550781 -3.363281 C 14.550781 -1.605469 13.53125 -0.585938 11.648438 -0.585938 L 5.964844 -0.585938 L 5.964844 -8.664062 L 10.78125 -8.664062 C 11.773438 -8.664062 12.183594 -8.078125 12.183594 -7.210938 L 12.183594 -6.421875 L 12.742188 -6.421875 L 12.742188 -11.417969 L 12.183594 -11.417969 L 12.183594 -10.652344 C 12.183594 -9.761719 11.773438 -9.226562 10.78125 -9.226562 L 5.964844 -9.226562 L 5.964844 -17.277344 L 11.648438 -17.277344 C 13.53125 -17.277344 14.550781 -16.234375 14.550781 -14.476562 Z M 14.550781 -14.476562 "/></g></g></g><g fill="#2b2b2a" fill-opacity="1"><g transform="translate(153.625005, 300.671231)"><g><path d="M 7.773438 0 L 11.46875 0 L 17.457031 -17.277344 L 19.191406 -17.277344 L 19.191406 -17.839844 L 15.085938 -17.839844 L 15.085938 -17.277344 L 16.84375 -17.277344 L 11.265625 -1.199219 L 5.65625 -17.277344 L 7.363281 -17.277344 L 7.363281 -17.839844 L 0 -17.839844 L 0 -17.277344 L 1.785156 -17.277344 Z M 7.773438 0 "/></g></g></g><g fill="#2b2b2a" fill-opacity="1"><g transform="translate(172.808815, 300.671231)"><g><path d="M 14.550781 -14.476562 L 14.550781 -13.226562 L 15.136719 -13.226562 L 15.136719 -17.839844 L 0.714844 -17.839844 L 0.714844 -17.277344 L 2.269531 -17.277344 L 2.269531 -0.585938 L 0.714844 -0.585938 L 0.714844 0 L 15.136719 0 L 15.136719 -4.613281 L 14.550781 -4.613281 L 14.550781 -3.363281 C 14.550781 -1.605469 13.53125 -0.585938 11.648438 -0.585938 L 5.964844 -0.585938 L 5.964844 -8.664062 L 10.78125 -8.664062 C 11.773438 -8.664062 12.183594 -8.078125 12.183594 -7.210938 L 12.183594 -6.421875 L 12.742188 -6.421875 L 12.742188 -11.417969 L 12.183594 -11.417969 L 12.183594 -10.652344 C 12.183594 -9.761719 11.773438 -9.226562 10.78125 -9.226562 L 5.964844 -9.226562 L 5.964844 -17.277344 L 11.648438 -17.277344 C 13.53125 -17.277344 14.550781 -16.234375 14.550781 -14.476562 Z M 14.550781 -14.476562 "/></g></g></g><g fill="#2b2b2a" fill-opacity="1"><g transform="translate(189.521411, 300.671231)"><g><path d="M 0.714844 0 L 15.136719 0 L 15.136719 -4.613281 L 14.550781 -4.613281 L 14.550781 -3.363281 C 14.550781 -1.605469 13.53125 -0.585938 11.648438 -0.585938 L 5.964844 -0.585938 L 5.964844 -17.277344 L 7.542969 -17.277344 L 7.542969 -17.839844 L 0.714844 -17.839844 L 0.714844 -17.277344 L 2.269531 -17.277344 L 2.269531 -0.585938 L 0.714844 -0.585938 Z M 0.714844 0 "/></g></g></g><g fill="#2b2b2a" fill-opacity="1"><g transform="translate(205.546136, 300.671231)"><g><path d="M 9.734375 0.253906 C 15.265625 0.253906 18.398438 -3.238281 18.398438 -8.917969 C 18.398438 -14.628906 15.265625 -18.09375 9.734375 -18.09375 C 4.359375 -18.09375 1.042969 -14.578125 1.042969 -8.917969 C 1.042969 -3.261719 4.152344 0.253906 9.734375 0.253906 Z M 4.738281 -6.371094 L 4.738281 -11.46875 C 4.738281 -15.546875 6.804688 -17.535156 9.734375 -17.535156 C 12.640625 -17.535156 14.703125 -15.546875 14.703125 -11.46875 L 14.703125 -6.371094 C 14.703125 -2.320312 12.640625 -0.332031 9.734375 -0.332031 C 6.804688 -0.332031 4.738281 -2.320312 4.738281 -6.371094 Z M 4.738281 -6.371094 "/></g></g></g><g fill="#2b2b2a" fill-opacity="1"><g transform="translate(224.95924, 300.671231)"><g><path d="M 0.714844 0 L 7.542969 0 L 7.542969 -0.585938 L 5.964844 -0.585938 L 5.964844 -6.089844 L 10.21875 -6.089844 C 13.632812 -6.089844 16.03125 -7.875 16.03125 -11.902344 C 16.03125 -16.054688 13.683594 -17.839844 10.246094 -17.839844 L 0.839844 -17.839844 L 0.839844 -17.277344 L 2.269531 -17.277344 L 2.269531 -0.585938 L 0.714844 -0.585938 Z M 5.964844 -6.675781 L 5.964844 -17.277344 L 7.953125 -17.277344 C 10.753906 -17.277344 12.335938 -15.519531 12.335938 -13.023438 L 12.335938 -10.78125 C 12.335938 -8.332031 10.753906 -6.675781 7.925781 -6.675781 Z M 5.964844 -6.675781 "/></g></g></g><g fill="#2b2b2a" fill-opacity="1"><g transform="translate(241.442542, 300.671231)"><g><path d="M 0 0 L 4.5625 0 L 4.5625 -0.585938 L 2.597656 -0.585938 L 5.914062 -16.234375 L 9.351562 0 L 14.652344 0 L 14.652344 -0.585938 L 12.996094 -0.585938 L 12.386719 -3.441406 L 15.0625 -16.105469 L 18.476562 0 L 23.828125 0 L 23.828125 -0.585938 L 22.121094 -0.585938 L 18.503906 -17.839844 L 12.84375 -17.839844 L 12.84375 -17.277344 L 14.679688 -17.277344 L 12.105469 -4.84375 L 9.351562 -17.839844 L 3.722656 -17.839844 L 3.722656 -17.277344 L 5.53125 -17.277344 L 2.011719 -0.585938 L 0 -0.585938 Z M 0 0 "/></g></g></g><g fill="#2b2b2a" fill-opacity="1"><g transform="translate(265.263085, 300.671231)"><g><path d="M 14.550781 -14.476562 L 14.550781 -13.226562 L 15.136719 -13.226562 L 15.136719 -17.839844 L 0.714844 -17.839844 L 0.714844 -17.277344 L 2.269531 -17.277344 L 2.269531 -0.585938 L 0.714844 -0.585938 L 0.714844 0 L 15.136719 0 L 15.136719 -4.613281 L 14.550781 -4.613281 L 14.550781 -3.363281 C 14.550781 -1.605469 13.53125 -0.585938 11.648438 -0.585938 L 5.964844 -0.585938 L 5.964844 -8.664062 L 10.78125 -8.664062 C 11.773438 -8.664062 12.183594 -8.078125 12.183594 -7.210938 L 12.183594 -6.421875 L 12.742188 -6.421875 L 12.742188 -11.417969 L 12.183594 -11.417969 L 12.183594 -10.652344 C 12.183594 -9.761719 11.773438 -9.226562 10.78125 -9.226562 L 5.964844 -9.226562 L 5.964844 -17.277344 L 11.648438 -17.277344 C 13.53125 -17.277344 14.550781 -16.234375 14.550781 -14.476562 Z M 14.550781 -14.476562 "/></g></g></g><g fill="#2b2b2a" fill-opacity="1"><g transform="translate(281.975681, 300.671231)"><g><path d="M 0.714844 0 L 4.410156 0 L 4.410156 -0.585938 L 2.855469 -0.585938 L 2.855469 -14.652344 L 14.832031 0 L 15.394531 0 L 15.394531 -17.277344 L 16.949219 -17.277344 L 16.949219 -17.839844 L 13.253906 -17.839844 L 13.253906 -17.277344 L 14.808594 -17.277344 L 14.808594 -5.53125 L 5.019531 -17.839844 L 0.714844 -17.839844 L 0.714844 -17.277344 L 2.269531 -17.277344 L 2.269531 -0.585938 L 0.714844 -0.585938 Z M 0.714844 0 "/></g></g></g><g fill="#2b2b2a" fill-opacity="1"><g transform="translate(299.452571, 300.671231)"><g><path d="M 0.535156 -13.226562 L 1.121094 -13.226562 L 1.121094 -14.476562 C 1.121094 -16.234375 2.140625 -17.277344 4.027344 -17.277344 L 5.53125 -17.277344 L 5.53125 -0.585938 L 3.976562 -0.585938 L 3.976562 0 L 10.78125 0 L 10.78125 -0.585938 L 9.226562 -0.585938 L 9.226562 -17.277344 L 10.730469 -17.277344 C 12.613281 -17.277344 13.632812 -16.234375 13.632812 -14.476562 L 13.632812 -13.226562 L 14.21875 -13.226562 L 14.21875 -17.839844 L 0.535156 -17.839844 Z M 0.535156 -13.226562 "/></g></g></g><g fill="#2b2b2a" fill-opacity="1"><g transform="translate(127.733433, 269.285198)"><g><path d="M 1.304688 -8.089844 L 1.304688 0 L 3.195312 0 L 3.195312 -4.761719 L 20.554688 -4.761719 L 20.554688 -6.65625 L 3.195312 -6.65625 L 3.195312 -8.089844 C 3.195312 -8.90625 3.816406 -9.527344 4.632812 -9.527344 L 20.554688 -9.527344 L 20.554688 -11.417969 L 4.632812 -11.417969 C 2.707031 -11.417969 1.304688 -10.015625 1.304688 -8.089844 Z M 1.304688 -8.089844 "/></g></g></g><g fill="#2b2b2a" fill-opacity="1"><g transform="translate(149.592151, 269.285198)"><g><path d="M 1.304688 0 L 3.195312 0 L 3.195312 -4.761719 L 14.84375 -4.761719 C 17.046875 -4.761719 18.660156 -3.148438 18.660156 -0.945312 L 18.660156 0 L 20.554688 0 L 20.554688 -0.945312 C 20.554688 -2.660156 19.917969 -4.128906 18.839844 -5.136719 C 19.886719 -5.675781 20.554688 -6.769531 20.554688 -8.089844 C 20.554688 -10.015625 19.152344 -11.417969 17.226562 -11.417969 L 1.304688 -11.417969 Z M 3.195312 -6.65625 L 3.195312 -9.527344 L 17.226562 -9.527344 C 18.042969 -9.527344 18.660156 -8.90625 18.660156 -8.089844 C 18.660156 -7.273438 18.042969 -6.65625 17.226562 -6.65625 Z M 3.195312 -6.65625 "/></g></g></g><g fill="#2b2b2a" fill-opacity="1"><g transform="translate(171.450868, 269.285198)"><g><path d="M 17.226562 -11.417969 L 4.632812 -11.417969 C 2.707031 -11.417969 1.304688 -10.015625 1.304688 -8.089844 L 1.304688 -3.328125 C 1.304688 -1.402344 2.707031 0 4.632812 0 L 17.226562 0 C 19.152344 0 20.554688 -1.402344 20.554688 -3.328125 L 20.554688 -8.089844 C 20.554688 -10.015625 19.152344 -11.417969 17.226562 -11.417969 Z M 3.195312 -3.328125 L 3.195312 -8.089844 C 3.195312 -8.90625 3.816406 -9.527344 4.632812 -9.527344 L 17.226562 -9.527344 C 18.042969 -9.527344 18.660156 -8.90625 18.660156 -8.089844 L 18.660156 -3.328125 C 18.660156 -2.511719 18.042969 -1.890625 17.226562 -1.890625 L 4.632812 -1.890625 C 3.816406 -1.890625 3.195312 -2.511719 3.195312 -3.328125 Z M 3.195312 -3.328125 "/></g></g></g><g fill="#2b2b2a" fill-opacity="1"><g transform="translate(193.309585, 269.285198)"><g><path d="M 18.660156 -8.089844 L 18.660156 0 L 20.554688 0 L 20.554688 -8.089844 C 20.554688 -10.015625 19.152344 -11.417969 17.226562 -11.417969 L 4.632812 -11.417969 C 2.707031 -11.417969 1.304688 -10.015625 1.304688 -8.089844 L 1.304688 0 L 3.195312 0 L 3.195312 -8.089844 C 3.195312 -8.90625 3.816406 -9.527344 4.632812 -9.527344 L 17.226562 -9.527344 C 18.042969 -9.527344 18.660156 -8.90625 18.660156 -8.089844 Z M 18.660156 -8.089844 "/></g></g></g><g fill="#2b2b2a" fill-opacity="1"><g transform="translate(215.168302, 269.285198)"><g><path d="M 10.636719 0 L 12.527344 0 L 12.527344 -9.527344 L 21.859375 -9.527344 L 21.859375 -11.417969 L 1.304688 -11.417969 L 1.304688 -9.527344 L 10.636719 -9.527344 Z M 10.636719 0 "/></g></g></g><g fill="#2b2b2a" fill-opacity="1"><g transform="translate(238.332023, 269.285198)"><g><path d="M 1.304688 -8.089844 L 1.304688 -3.328125 C 1.304688 -1.402344 2.707031 0 4.632812 0 L 20.554688 0 L 20.554688 -1.890625 L 4.632812 -1.890625 C 3.816406 -1.890625 3.195312 -2.511719 3.195312 -3.328125 L 3.195312 -4.761719 L 20.554688 -4.761719 L 20.554688 -6.65625 L 3.195312 -6.65625 L 3.195312 -8.089844 C 3.195312 -8.90625 3.816406 -9.527344 4.632812 -9.527344 L 20.554688 -9.527344 L 20.554688 -11.417969 L 4.632812 -11.417969 C 2.707031 -11.417969 1.304688 -10.015625 1.304688 -8.089844 Z M 1.304688 -8.089844 "/></g></g></g><g fill="#2b2b2a" fill-opacity="1"><g transform="translate(260.19074, 269.285198)"><g><path d="M 18.660156 -8.089844 L 18.660156 0 L 20.554688 0 L 20.554688 -8.089844 C 20.554688 -10.015625 19.152344 -11.417969 17.226562 -11.417969 L 4.632812 -11.417969 C 2.707031 -11.417969 1.304688 -10.015625 1.304688 -8.089844 L 1.304688 0 L 3.195312 0 L 3.195312 -8.089844 C 3.195312 -8.90625 3.816406 -9.527344 4.632812 -9.527344 L 17.226562 -9.527344 C 18.042969 -9.527344 18.660156 -8.90625 18.660156 -8.089844 Z M 18.660156 -8.089844 "/></g></g></g><g fill="#2b2b2a" fill-opacity="1"><g transform="translate(282.049457, 269.285198)"><g><path d="M 1.304688 0 L 17.226562 0 C 19.152344 0 20.554688 -1.402344 20.554688 -3.328125 L 20.554688 -8.089844 C 20.554688 -10.015625 19.152344 -11.417969 17.226562 -11.417969 L 1.304688 -11.417969 Z M 3.195312 -1.890625 L 3.195312 -9.527344 L 17.226562 -9.527344 C 18.042969 -9.527344 18.660156 -8.90625 18.660156 -8.089844 L 18.660156 -3.328125 C 18.660156 -2.511719 18.042969 -1.890625 17.226562 -1.890625 Z M 3.195312 -1.890625 "/></g></g></g></svg>